<?xml version="1.0" encoding="UTF-8"?>
<!-- Generator: visioncortex VTracer 0.6.12 -->
<svg version="1.1" xmlns="http://www.w3.org/2000/svg" width="63" height="84">
<path d="M0 0 C2.70674295 0.1411238144 5.0983567975 0.4380126897 7.4296875 1.8911132812 C8.8500849769 3.0605807125 10.1802573513 4.2805182283 11.5 5.5625 C11.9763085938 6.0143164062 12.4526171875 6.4661328125 12.943359375 6.931640625 C18.424159029 12.2329870843 22.6744454565 16.9559507342 24.8125 24.375 C25.1258729469 25.5744619691 25.4283533568 26.7737827594 25.7062988281 27.9819335938 C26 29 26 29 26.5234375 30.0034179688 C27.3932244103 31.8223063744 27.1902241195 33.7654789359 27.1875 35.75 C27.1881445313 36.2479003906 27.1887890625 36.7458007812 27.189453125 37.2587890625 C27.0708542755 46.5256718958 25.9248055199 55.7863790488 25 65 C22.21484375 66.9711914062 22.21484375 66.9711914062 20.28125 67.23046875 C19.6934375 67.2162890625 19.105625 67.202109375 18.5 67.1875 C17.9121875 67.1810546875 17.324375 67.174609375 16.71875 67.16796875 C15 67 15 67 13.5234375 66.49609375 C11.699739408 65.9022228329 10.0203272019 65.8530464031 8.125 65.875 C7.467578125 65.872421875 6.81015625 65.86984375 6.1328125 65.8671875 C4.5676351582 65.9159046979 3.1586966369 66.1734223228 1.63671875 66.53515625 C-1.3985069296 67.1878929553 -4.2481439315 66.8864355747 -7.3125 66.5625 C-7.8622851562 66.5102929687 -8.4120703125 66.4580859375 -8.978515625 66.404296875 C-10.3197845806 66.2760015836 -11.6600317426 66.1411335088 -13 66 C-14.0597851171 64.5598887723 -14.9061515274 63.3239577083 -15.40625 61.59765625 C-15.6710082917 57.2622392235 -14.3845001215 53.8241148869 -12.5625 49.9375 C-10.7824237572 46.3915227005 -8.99149886 43.5759652352 -5.7143554688 41.2785644531 C-4.1994796065 40.3368241174 -2.6538856776 39.4679993886 -1.0830078125 38.6235351562 C0.2868767862 37.8348324364 1.4835008608 36.8978870906 2.71875 35.9165039062 C6.5946282797 32.8548292235 10.1559794478 31.9348109838 15 31 C14.34 27.37 13.68 23.74 13 20 C12.0925 19.29875 11.185 18.5975 10.25 17.875 C7.5489207333 15.7046846269 5.8276508032 13.3910373876 4.01171875 10.42578125 C2.3925372898 8.1439232076 0.2786027924 6.5875511259 -2 5 C-1.31640625 1.97265625 -1.31640625 1.97265625 -1 1 C-0.67 0.67 -0.34 0.34 0 0 Z M10 35 C6.7 37.64 3.4 40.28 0 43 C-1.5181066075 48.3133731263 -2.8381140786 53.441331626 -2 59 C-1.34 59.99 -0.68 60.98 0 62 C5.28 62 10.56 62 16 62 C16.99 61.01 17.98 60.02 19 59 C19 51.08 19 43.16 19 35 C16.03 35 13.06 35 10 35 Z " fill="#000000" transform="translate(29,10)"/>
</svg>
