<?xml version="1.0" encoding="UTF-8"?>
<!-- Generator: visioncortex VTracer 0.6.12 -->
<svg version="1.1" xmlns="http://www.w3.org/2000/svg" width="64" height="69">
<path d="M0 0 C2.64 0.99 5.28 1.98 8 3 C8.8958625457 4.3814063682 9.500392358 5.4469471453 10 7 C10.1047494724 9.2757899082 9.8735066663 11.488589337 9.625 13.75 C9.56828125 14.3519921875 9.5115625 14.953984375 9.453125 15.57421875 C9.3125257406 17.0505109739 9.1576847137 18.5254348393 9 20 C7.35 21.65 5.7 23.3 4 25 C4 27.97 4 30.94 4 34 C4.33 34.33 4.66 34.66 5 35 C7.64 35 10.28 35 13 35 C14.32 32.69 15.64 30.38 17 28 C17.99 28.33 18.98 28.66 20 29 C20 30.65 20 32.3 20 34 C19.2125392783 34.9828231145 18.4203943424 35.9611311022 17.625 36.9375 C17.514140625 37.0763964844 17.514140625 37.0763964844 16.953125 37.779296875 C15.7391010016 39.2611202848 14.7820108209 40.2937957117 13 41 C11.9467773438 41.1135253906 11.9467773438 41.1135253906 10.8359375 41.09765625 C10.4754833984 41.0951586914 10.1150292969 41.0926611328 9.7436523438 41.0900878906 C9.517824707 41.0855358887 9.517824707 41.0855358887 8.375 41.0625 C7.653125 41.0521875 7.653125 41.0521875 4 41 C1.69 39.02 -0.62 37.04 -3 35 C-4.4301212508 27.3726866624 -4.4301212508 27.3726866624 -3.6708984375 24.9497070312 C-3.043280424 23.6165184485 -2.3080871171 22.3688428639 -1.552734375 21.1049804688 C1.0567147099 16.5248063345 1 11.1636690449 1 6 C-0.32 5.34 -1.64 4.68 -3 4 C-2.67 3.01 -2.34 2.02 -2 1 C-1.34 0.67 -0.68 0.34 0 0 Z " fill="#000000" transform="translate(24,13)"/>
</svg>
