<?xml version="1.0" encoding="UTF-8"?>
<!-- Generator: visioncortex VTracer 0.6.12 -->
<svg version="1.1" xmlns="http://www.w3.org/2000/svg" width="59" height="64">
<path d="M0 0 C1.32 0.33 2.64 0.66 4 1 C6.2181767411 5.195029857 6.241529309 9.1898042992 6.125 13.8125 C6.1149441187 14.5123568998 6.1058228952 15.2122278802 6.09765625 15.912109375 C6.0742615662 17.608223953 6.0383964066 19.3041587077 6 21 C9.96 21 13.92 21 18 21 C17.8930078125 19.9751953125 17.786015625 18.950390625 17.67578125 17.89453125 C17.5852822063 16.88511884 17.4949107267 15.8756909596 17.4079589844 14.8659667969 C17.3450780196 14.1720246921 17.2762111577 13.478595007 17.2009277344 12.7858886719 C16.5848680028 7.0594274083 16.5848680028 7.0594274083 17.6147460938 4.4311523438 C18.6010700038 2.7648945043 19.6320085787 1.3679914213 21 0 C22.98 0 24.96 0 27 0 C27.99 1.32 28.98 2.64 30 4 C30.0496410514 7.8960588282 30.0858328068 11.7919312939 30.1098632812 15.6882324219 C30.1198868988 17.0121582995 30.133509419 18.3360622299 30.1508789062 19.6599121094 C30.1752887175 21.5689029399 30.1865194029 23.4775996783 30.1953125 25.38671875 C30.2056350708 25.9733781433 30.2159576416 26.5600375366 30.2265930176 27.1644744873 C30.2275762717 30.8108067247 29.7658878254 33.7735414031 28 37 C27.1058930876 38.2254941876 26.2790426194 39.1723841875 25 40 C23.6510250195 40.5016044151 22.4290657581 40.7536093521 21 41 C18.9167517408 38.1568247029 17.7985277288 35.7040535669 17.3125 32.1875 C17.209375 31.135625 17.10625 30.08375 17 29 C14.03 29 11.06 29 8 29 C6.02 32.63 4.04 36.26 2 40 C1.34 40.165 1.34 40.165 -2 41 C-2.99 40.01 -3.98 39.02 -5 38 C-4.9616534096 34.0784255544 -4.901886622 30.1577818504 -4.8160972595 26.2369909286 C-4.7768874142 24.4155302104 -4.7445742072 22.5945334016 -4.7290039062 20.7727050781 C-4.6066143459 7.3811679779 -4.6066143459 7.3811679779 -2.5171508789 3.4088287354 C-1.7611629143 2.1959224957 -0.9403820438 1.0759204223 0 0 Z " fill="#000000" transform="translate(15,7)"/>
</svg>
